<?xml version="1.0" encoding="UTF-8"?>
<svg version="1.1" xmlns="http://www.w3.org/2000/svg" width="500" height="500">
<path d="M0 0 C13.97000721 -0.07038762 27.93998652 -0.12293272 41.91013527 -0.15543652 C48.39816088 -0.17104256 54.88606673 -0.19218794 61.37402344 -0.22631836 C67.64398743 -0.2590928 73.91383676 -0.27689102 80.18387985 -0.28463173 C82.56707945 -0.2901429 84.9502733 -0.30090422 87.33342361 -0.31719017 C110.68816664 -0.47033607 129.66440293 2.94925515 149 17 C149 17.66 149 18.32 149 19 C149.639375 19.2475 150.27875 19.495 150.9375 19.75 C153 21 153 21 153.80053711 22.87597656 C154 25 154 25 152.92016602 26.64746094 C152.37030029 27.17114258 151.82043457 27.69482422 151.25390625 28.234375 C150.66416016 28.80800781 150.07441406 29.38164062 149.46679688 29.97265625 C148.83837891 30.55917969 148.20996094 31.14570313 147.5625 31.75 C146.93794922 32.35199219 146.31339844 32.95398438 145.66992188 33.57421875 C144.12421404 35.0609301 142.5634768 36.5319865 141 38 C137.71884776 36.44500617 135.54060341 34.73221605 132.9375 32.1875 C123.31412749 23.48063916 111.57802162 20.71592135 98.90014648 20.68115234 C98.02678933 20.67099909 97.15343218 20.66084583 96.25360966 20.6503849 C93.45944126 20.62003615 90.66537317 20.60267601 87.87109375 20.5859375 C86.13284455 20.56897897 84.39460353 20.55115972 82.65637207 20.5324707 C76.25017509 20.46957498 69.84382388 20.42327019 63.4375 20.375 C49.103125 20.25125 34.76875 20.1275 20 20 C20.33 68.51 20.66 117.02 21 167 C21.66 167 22.32 167 23 167 C23 166.34 23 165.68 23 165 C23.66 165 24.32 165 25 165 C25 164.34 25 163.68 25 163 C25.66 163 26.32 163 27 163 C27 162.34 27 161.68 27 161 C27.66 161 28.32 161 29 161 C29 160.34 29 159.68 29 159 C30.485 158.01 30.485 158.01 32 157 C32.46281602 154.74964597 32.46281602 154.74964597 32.39872742 152.0899353 C32.41126556 151.05224503 32.42380371 150.01455475 32.4367218 148.94541931 C32.43528671 147.80246902 32.43385162 146.65951874 32.43237305 145.48193359 C32.4425647 144.28195236 32.45275635 143.08197113 32.46325684 141.84562683 C32.48832276 138.55026608 32.50012175 135.25535149 32.50611091 131.95993376 C32.51547429 128.51786641 32.54167589 125.07592901 32.56611633 121.63394165 C32.60984138 115.11395436 32.63835132 108.59399219 32.66143972 102.07390273 C32.68845934 94.65191584 32.73237273 87.23005928 32.77772844 79.80816531 C32.87066062 64.53884379 32.94230193 49.26949775 33 34 C42.62333286 33.95352498 52.24662669 33.91805403 61.87004757 33.89637566 C66.33926819 33.88596769 70.80841166 33.87186343 75.27758789 33.84912109 C79.59588434 33.8272857 83.91410687 33.81540894 88.2324543 33.81024551 C89.87455978 33.80656888 91.51666152 33.79938962 93.15873528 33.78853989 C112.74921821 33.66432406 112.74921821 33.66432406 121 38 C121 38.66 121 39.32 121 40 C121.556875 40.0825 122.11375 40.165 122.6875 40.25 C125.69714206 41.22610013 127.62154752 42.95188814 130 45 C129.55557844 49.82763807 127.56242682 52.00501451 124.1875 55.375 C123.31480469 56.26960938 122.44210938 57.16421875 121.54296875 58.0859375 C119 60 119 60 116.8046875 59.8828125 C114.64853633 58.82807188 112.89518238 57.46723797 111 56 C107.95362701 54.98454234 105.80222902 54.8458023 102.6105957 54.79467773 C101.49430786 54.77449585 100.37802002 54.75431396 99.22790527 54.73352051 C98.05570435 54.71704468 96.88350342 54.70056885 95.67578125 54.68359375 C94.59760132 54.66494263 93.51942139 54.6462915 92.40856934 54.6270752 C89.24420988 54.57342692 86.07980572 54.52470326 82.91534805 54.47727585 C77.17552434 54.38956179 71.43579577 54.29570572 65.69604492 54.20336914 C63.27552825 54.16457788 60.85501131 54.12580388 58.43449402 54.08705139 C57.38803302 54.07028886 56.34157202 54.05352633 55.26340008 54.03625584 C54.14301704 54.0183092 54.14301704 54.0183092 53 54 C53.00276538 54.56414517 53.00553076 55.12829035 53.00837994 55.70953083 C53.07460399 69.43006157 53.12407166 83.15056434 53.15543652 96.87122059 C53.17111285 103.50641128 53.19238718 110.14148688 53.22631836 116.77661133 C53.25884137 123.17620161 53.27683818 129.57568099 53.28463173 135.97534752 C53.29018792 138.42066889 53.30103734 140.86598398 53.31719017 143.31125832 C53.33887029 146.72822968 53.34197083 150.14473885 53.34057617 153.56176758 C53.351362 154.57956299 53.36214783 155.5973584 53.3732605 156.64599609 C53.36707451 158.0405175 53.36707451 158.0405175 53.36076355 159.46321106 C53.36352893 160.27162351 53.36629431 161.08003595 53.36914349 161.91294575 C52.90886483 164.51525775 52.08264099 165.41902932 50 167 C49.34 167 48.68 167 48 167 C48 167.66 48 168.32 48 169 C47.34 169 46.68 169 46 169 C46 169.66 46 170.32 46 171 C45.34 171 44.68 171 44 171 C43.773125 171.556875 43.54625 172.11375 43.3125 172.6875 C41.62449964 175.66159588 39.53323483 177.72008865 37 180 C36.34 180 35.68 180 35 180 C35 180.66 35 181.32 35 182 C34.34 182 33.68 182 33 182 C33 182.66 33 183.32 33 184 C32.34 184 31.68 184 31 184 C31 184.66 31 185.32 31 186 C30.34 186 29.68 186 29 186 C29 186.66 29 187.32 29 188 C28.34 188 27.68 188 27 188 C27 188.66 27 189.32 27 190 C26.34 190 25.68 190 25 190 C25 190.66 25 191.32 25 192 C24.18917969 192.52464844 23.37835938 193.04929687 22.54296875 193.58984375 C19.37330919 196.59396042 19.41582616 198.05635473 19.30273438 202.24804688 C19.30756836 203.39370117 19.30756836 203.39370117 19.3125 204.5625 C19.2240717 212.66389245 19.2240717 212.66389245 17 216 C17.08333333 218.58333333 17.08333333 218.58333333 18 221 C20.75895635 223.29637779 20.75895635 223.29637779 23.5625 222.75 C26.15000567 222.16191948 26.15000567 222.16191948 28 220 C28.39764263 218.01178687 28.73775349 216.01055661 29 214 C28.34 214 27.68 214 27 214 C25.51380105 211.02760209 25.86822991 208.30380422 25.875 205 C25.87242188 203.741875 25.86984375 202.48375 25.8671875 201.1875 C26 198 26 198 27 196 C27.66 196 28.32 196 29 196 C29.33 195.01 29.66 194.02 30 193 C30.66 193 31.32 193 32 193 C32 192.34 32 191.68 32 191 C32.66 191 33.32 191 34 191 C34 190.34 34 189.68 34 189 C34.66 189 35.32 189 36 189 C36 188.34 36 187.68 36 187 C36.66 187 37.32 187 38 187 C38 186.34 38 185.68 38 185 C38.66 185 39.32 185 40 185 C40 184.34 40 183.68 40 183 C40.66 183 41.32 183 42 183 C42.33 182.01 42.66 181.02 43 180 C43.66 180 44.32 180 45 180 C45 179.34 45 178.68 45 178 C45.66 178 46.32 178 47 178 C47 177.34 47 176.68 47 176 C47.66 176 48.32 176 49 176 C49 175.34 49 174.68 49 174 C49.66 174 50.32 174 51 174 C51 173.34 51 172.68 51 172 C51.66 172 52.32 172 53 172 C53 171.34 53 170.68 53 170 C53.66 170 54.32 170 55 170 C55 169.34 55 168.68 55 168 C57.54620782 166.72689609 59.34255885 166.86851603 62.19311523 166.8581543 C63.82137489 166.84760262 63.82137489 166.84760262 65.48252869 166.83683777 C66.66263016 166.83267349 67.84273163 166.82850922 69.05859375 166.82421875 C71.55404474 166.80100357 74.04948746 166.77688557 76.54492188 166.75195312 C80.48141875 166.71696095 84.41761521 166.68756817 88.35424805 166.67407227 C92.15190314 166.65850123 95.94867488 166.61821166 99.74609375 166.57421875 C101.48891884 166.57708138 101.48891884 166.57708138 103.26695251 166.58000183 C110.93280109 166.46650892 116.96749047 164.99931181 124 162 C124.99 161.67 125.98 161.34 127 161 C127 160.34 127 159.68 127 159 C127.66 159 128.32 159 129 159 C129 158.34 129 157.68 129 157 C129.66 157 130.32 157 131 157 C131 156.34 131 155.68 131 155 C131.66 155 132.32 155 133 155 C133 154.34 133 153.68 133 153 C133.66 153 134.32 153 135 153 C135 152.01 135 151.02 135 150 C135.66 150 136.32 150 137 150 C137 148.68 137 147.36 137 146 C137.66 146 138.32 146 139 146 C139.95417292 129.49577769 139.95417292 129.49577769 133 115 C133 114.34 133 113.68 133 113 C132.34 113 131.68 113 131 113 C131 112.34 131 111.68 131 111 C130.360625 110.71125 129.72125 110.4225 129.0625 110.125 C127 109 127 109 126 107 C125.64310018 101.24213698 125.55807918 95.48426047 125.48510742 89.71655273 C125.4535104 87.78913436 125.40580019 85.86190913 125.34155273 83.93530273 C124.8149523 67.92142475 124.8149523 67.92142475 127.68237305 63.2722168 C129.70565455 61.51014002 131.63732149 60.25433934 134 59 C135.33003556 57.74753083 136.64870136 56.48236357 137.9375 55.1875 C138.50339844 54.62417969 139.06929687 54.06085938 139.65234375 53.48046875 C141.10165172 52.02284428 141.10165172 52.02284428 142 50 C142.66 50 143.32 50 144 50 C144 49.34 144 48.68 144 48 C144.66 48 145.32 48 146 48 C146 47.34 146 46.68 146 46 C146.66 46 147.32 46 148 46 C148 45.34 148 44.68 148 44 C148.66 44 149.32 44 150 44 C150 43.34 150 42.68 150 42 C150.66 42 151.32 42 152 42 C152 41.34 152 40.68 152 40 C153.46875 38.5546875 153.46875 38.5546875 155.5 36.875 C159.3499234 33.62106119 162.86064335 30.15227282 166.3359375 26.50390625 C168 25 168 25 170 25 C170 24.34 170 23.68 170 23 C170.66 23 171.32 23 172 23 C172 22.34 172 21.68 172 21 C172.66 21 173.32 21 174 21 C174 20.34 174 19.68 174 19 C174.66 19 175.32 19 176 19 C176 18.34 176 17.68 176 17 C176.66 17 177.32 17 178 17 C178 16.34 178 15.68 178 15 C178.66 15 179.32 15 180 15 C180.23812912 14.45702774 180.47625824 13.91405548 180.72160339 13.35462952 C183.82627594 7.63625262 188.5360902 1.40769033 194.98864365 -0.62711716 C200.53383439 -1.59189083 206.12629199 -1.36519351 211.73046875 -1.21484375 C213.53402289 -1.20445545 215.33760659 -1.19839331 217.14118958 -1.19642639 C220.9035641 -1.1811317 224.66302226 -1.12993099 228.42456055 -1.04956055 C233.22967847 -0.94750188 238.0323636 -0.91108826 242.83846569 -0.89845943 C246.55601341 -0.88567943 250.27306848 -0.85069769 253.99038124 -0.80783272 C255.76165095 -0.78766375 257.53296945 -0.77137036 259.30431175 -0.75913811 C261.78340234 -0.73617172 264.2605184 -0.68641936 266.73901367 -0.62866211 C267.45973053 -0.62576172 268.18044739 -0.62286133 268.92300415 -0.61987305 C275.13613838 -0.4258282 280.30186516 1.67168673 285.0234375 5.74609375 C289.67350046 11.5653922 291.49195215 15.89320038 291.3125 23.44140625 C290.4397755 30.58683809 286.27287924 35.41488762 281 40 C280.34 40 279.68 40 279 40 C279 40.66 279 41.32 279 42 C278.34 42 277.68 42 277 42 C277 42.66 277 43.32 277 44 C276.34 44 275.68 44 275 44 C275 44.66 275 45.32 275 46 C274.34 46 273.68 46 273 46 C273 46.66 273 47.32 273 48 C253.53 48 234.06 48 214 48 C214 48.66 214 49.32 214 50 C213.34 50 212.68 50 212 50 C212 50.66 212 51.32 212 52 C211.34 52 210.68 52 210 52 C209.67 52.99 209.34 53.98 209 55 C207.43359375 56.54296875 207.43359375 56.54296875 205.4375 58.1875 C202.48987358 60.68326212 199.70425934 63.24219097 197 66 C193.76533976 69.28540001 190.39137951 72.32652542 186.890625 75.32421875 C185.0472144 76.95815087 183.33483838 78.66541022 181.625 80.4375 C179 83 179 83 177 83 C177 83.66 177 84.32 177 85 C176.34 85 175.68 85 175 85 C176.46950645 89.60890658 178.0276227 94.11618485 179.9375 98.5625 C188.7603782 121.04551009 189.69376684 147.46605277 180.17431641 169.95019531 C178.62037415 173.40039754 176.90003045 176.72881356 175 180 C174.34 180 173.68 180 173 180 C172.855625 180.61875 172.71125 181.2375 172.5625 181.875 C172 184 172 184 171 186 C170.34 186 169.68 186 169 186 C168.77054688 186.71542969 168.54109375 187.43085938 168.3046875 188.16796875 C162.22245932 201.37041016 144.72209525 210.72127102 132 216 C120.75263506 219.62894744 110.41671659 220.55627665 98.6875 220.390625 C97.09611737 220.38313768 95.50472534 220.37745659 93.91333008 220.37347412 C89.78358176 220.3584132 85.65442252 220.31930819 81.52490234 220.2746582 C77.28751589 220.23327588 73.05003153 220.21537271 68.8125 220.1953125 C60.54140039 220.15278819 52.27077405 220.08478409 44 220 C43.86730713 221.26545654 43.73461426 222.53091309 43.59790039 223.8347168 C42.96677304 229.85361009 39.47374719 233.15866733 35 237 C29.60769619 240.40113374 23.21498165 240.99364714 17 240 C10.50495088 237.78771253 5.70713719 234.79240187 2 229 C0.02200562 223.44728544 -0.28062145 218.5374281 -0.24050903 212.73023987 C-0.24307231 211.36144547 -0.24307231 211.36144547 -0.24568737 209.96499866 C-0.24897179 206.91872361 -0.23799579 203.87267065 -0.22705078 200.82641602 C-0.22648644 198.63821925 -0.22680367 196.45002211 -0.22793579 194.26182556 C-0.22850941 188.32851177 -0.21675346 182.39527891 -0.20278788 176.46198392 C-0.19028218 170.25867196 -0.18911014 164.05535814 -0.18673706 157.85203552 C-0.1808751 146.77581357 -0.16643347 135.69962507 -0.14745162 124.62341838 C-0.13031459 114.57031787 -0.11782919 104.51722332 -0.10986328 94.46411133 C-0.10907511 93.4722004 -0.10907511 93.4722004 -0.10827102 92.46025086 C-0.10566086 89.14268153 -0.10313797 85.82511215 -0.10064721 82.50754273 C-0.07974423 55.00500784 -0.04456738 27.50250601 0 0 Z M265.0625 18.1875 C263.700265 20.96099001 263.700265 20.96099001 264.75 23.75 C265.81112922 25.90270293 265.81112922 25.90270293 267 27 C270.72224599 27.29386153 271.77786243 27.14809171 275 25 C275.40373601 21.83740129 275.54458662 19.85987361 273.8125 17.125 C270.22211535 14.89648539 267.8739824 15.01324568 265.0625 18.1875 Z M180.88037109 39.40625 C178.07899342 43.27041988 174.68715713 46.0122178 171 49 C153.08781045 62.81270859 153.08781045 62.81270859 143.09375 82.01953125 C142.63593804 89.89412363 142.65128231 97.75614322 147.984375 103.984375 C148.49709961 104.4906543 149.00982422 104.99693359 149.53808594 105.51855469 C157.01356532 113.09390687 158.02521303 123.81320787 158.1875 133.875 C158.06764823 146.47275303 154.56092019 156.91877308 147 167 C147 167.66 147 168.32 147 169 C146.34 169 145.68 169 145 169 C145 169.66 145 170.32 145 171 C144.34 171 143.68 171 143 171 C143 171.66 143 172.32 143 173 C142.34 173 141.68 173 141 173 C141 173.66 141 174.32 141 175 C140.29875 175.2475 139.5975 175.495 138.875 175.75 C135.92297505 176.92684346 135.92297505 176.92684346 133.25 178.875 C121.08996324 186.82579327 108.34739968 187.15081095 94.20703125 187.02734375 C93.04710663 187.02206665 91.88718201 187.01678955 90.69210815 187.01135254 C85.83765337 186.98801839 80.98542892 186.96449876 76.13208008 186.8527832 C60.67766766 185.80463603 60.67766766 185.80463603 47.24015808 191.96034241 C43.65183087 195.5176706 43.65183087 195.5176706 42 200 C51.01539032 200.09328782 60.03061072 200.16405962 69.046381 200.20724869 C73.23422093 200.22799277 77.42172708 200.25606428 81.609375 200.30175781 C85.66188136 200.34569256 89.7140697 200.36923577 93.76679611 200.37950897 C95.30153779 200.38681601 96.836265 200.40108079 98.37086868 200.42292023 C117.61266524 200.68549595 134.16609727 195.26869614 148.38671875 181.89868164 C161.01567762 169.32969485 167.75984829 153.09346822 168.3125 135.3125 C168.00538141 122.12346257 165.36565466 107.29480834 156.296875 97.08203125 C154.32164858 93.91095992 154.67795303 91.1227023 154.75 87.4375 C154.75515625 86.76525391 154.7603125 86.09300781 154.765625 85.40039062 C154.81414717 82.3465264 155.02824544 79.91526368 156 77 C157.32403636 76.31505479 158.6591192 75.65135313 160 75 C161.41838177 73.6913421 162.79241236 72.33342355 164.125 70.9375 C167.80555556 67.09722222 167.80555556 67.09722222 170 66 C170 65.34 170 64.68 170 64 C170.66 64 171.32 64 172 64 C172 63.34 172 62.68 172 62 C172.66 62 173.32 62 174 62 C174 61.34 174 60.68 174 60 C174.66 60 175.32 60 176 60 C176 59.34 176 58.68 176 58 C176.66 58 177.32 58 178 58 C178 57.34 178 56.68 178 56 C178.66 56 179.32 56 180 56 C181.49825323 54.47970115 181.49825323 54.47970115 183.0625 52.5 C186.47703362 48.45154453 190.22340388 45.06152129 194.27734375 41.6640625 C194.84582031 41.11492187 195.41429687 40.56578125 196 40 C196 39.34 196 38.68 196 38 C196.66 38 197.32 38 198 38 C198 37.34 198 36.68 198 36 C198.66 36 199.32 36 200 36 C200 35.34 200 34.68 200 34 C200.66 34 201.32 34 202 34 C202 33.34 202 32.68 202 32 C202.66 32 203.32 32 204 32 C204 31.34 204 30.68 204 30 C206.76170144 29.07943285 208.52178855 28.85199851 211.37963867 28.79467773 C212.26032516 28.77473251 213.14101166 28.75478729 214.04838562 28.73423767 C214.99534805 28.71752518 215.94231049 28.70081268 216.91796875 28.68359375 C217.89034988 28.66281265 218.86273102 28.64203156 219.86457825 28.62062073 C222.97214665 28.55521252 226.07979985 28.49628071 229.1875 28.4375 C231.29362858 28.39430649 233.39974856 28.35069193 235.50585938 28.30664062 C240.67048591 28.19954001 245.83519778 28.09824781 251 28 C250.67 25.36 250.34 22.72 250 20 C209.95262101 15.7454234 209.95262101 15.7454234 180.88037109 39.40625 Z " fill="#E2D0C1" transform="translate(96,126)"/>
<path d="M0 0 C1.04939758 -0.01730415 1.04939758 -0.01730415 2.11999512 -0.03495789 C4.43524414 -0.06927336 6.75022627 -0.0877712 9.06567383 -0.10327148 C9.85831446 -0.11017439 10.65095509 -0.11707729 11.46761513 -0.12418938 C15.66542384 -0.16003288 19.86309808 -0.1835651 24.06103516 -0.19726562 C28.3846007 -0.2137848 32.7065222 -0.27216158 37.02953625 -0.34040928 C40.36430028 -0.3853294 43.69867562 -0.39877012 47.0337162 -0.40388298 C48.62649973 -0.4117501 50.21927239 -0.43131488 51.81175804 -0.46310616 C65.80795791 -0.72400351 65.80795791 -0.72400351 71.00048828 3.63525391 C73.26104341 6.00453554 74.72791063 8.36433062 76.08520508 11.33813477 C76.74520508 11.33813477 77.40520508 11.33813477 78.08520508 11.33813477 C78.08520508 11.99813477 78.08520508 12.65813477 78.08520508 13.33813477 C78.74520508 13.33813477 79.40520508 13.33813477 80.08520508 13.33813477 C80.08520508 13.99813477 80.08520508 14.65813477 80.08520508 15.33813477 C80.74520508 15.33813477 81.40520508 15.33813477 82.08520508 15.33813477 C82.08520508 15.99813477 82.08520508 16.65813477 82.08520508 17.33813477 C82.74520508 17.33813477 83.40520508 17.33813477 84.08520508 17.33813477 C84.08520508 17.99813477 84.08520508 18.65813477 84.08520508 19.33813477 C84.74520508 19.33813477 85.40520508 19.33813477 86.08520508 19.33813477 C86.08520508 19.99813477 86.08520508 20.65813477 86.08520508 21.33813477 C86.74520508 21.33813477 87.40520508 21.33813477 88.08520508 21.33813477 C88.08520508 21.99813477 88.08520508 22.65813477 88.08520508 23.33813477 C88.64995041 23.59476395 89.21469574 23.85139313 89.79655457 24.11579895 C99.26235714 29.17135 109.22388824 38.73903601 113.49334717 48.58575439 C115.95875281 56.99560004 116.34136967 65.43159293 116.27270508 74.15063477 C116.26701004 76.12850479 116.26701004 76.12850479 116.26119995 78.14633179 C115.87725603 102.67834925 107.13169153 121.06542283 89.72022438 138.16939735 C69.41386153 157.15241561 44.08459534 157.08806295 17.64770508 156.27563477 C3.75184521 155.78490285 -10.08543633 154.76630604 -23.91479492 153.33813477 C-24.04885742 154.09223633 -24.18291992 154.84633789 -24.32104492 155.62329102 C-25.58433258 161.3995076 -28.25518953 165.19917112 -32.85229492 168.77563477 C-38.63124409 172.30774373 -44.34300828 172.54851327 -50.91479492 171.33813477 C-56.06689702 169.207004 -60.83121913 165.72889919 -63.32495117 160.59204102 C-64.98340583 154.25476726 -65.34142706 147.11796944 -62.32104492 141.23266602 C-59.50324769 137.84307551 -56.54108646 135.54612317 -52.91479492 133.08813477 C-52.29862305 132.65500977 -51.68245117 132.22188477 -51.04760742 131.77563477 C-48.10246546 129.7279395 -45.19061227 127.81225257 -41.91479492 126.33813477 C-41.91479492 125.67813477 -41.91479492 125.01813477 -41.91479492 124.33813477 C-41.25479492 124.33813477 -40.59479492 124.33813477 -39.91479492 124.33813477 C-39.91479492 123.67813477 -39.91479492 123.01813477 -39.91479492 122.33813477 C-38.28973338 120.60823055 -36.63102191 118.97545476 -34.91479492 117.33813477 C-33.36695292 115.84450789 -31.82573027 114.34400286 -30.28979492 112.83813477 C-29.5344043 112.10594727 -28.77901367 111.37375977 -28.00073242 110.61938477 C-25.81385894 108.38366731 -25.81385894 108.38366731 -24.26635742 105.55688477 C-23.8203418 104.82469727 -23.37432617 104.09250977 -22.91479492 103.33813477 C-22.25479492 103.33813477 -21.59479492 103.33813477 -20.91479492 103.33813477 C-20.91479492 102.67813477 -20.91479492 102.01813477 -20.91479492 101.33813477 C1.19520508 101.33813477 23.30520508 101.33813477 46.08520508 101.33813477 C46.08520508 100.67813477 46.08520508 100.01813477 46.08520508 99.33813477 C47.46020508 97.71313477 47.46020508 97.71313477 49.08520508 96.33813477 C49.74520508 96.33813477 50.40520508 96.33813477 51.08520508 96.33813477 C51.08520508 95.67813477 51.08520508 95.01813477 51.08520508 94.33813477 C51.74520508 94.33813477 52.40520508 94.33813477 53.08520508 94.33813477 C53.08520508 93.67813477 53.08520508 93.01813477 53.08520508 92.33813477 C53.74520508 92.33813477 54.40520508 92.33813477 55.08520508 92.33813477 C55.48739258 91.44094727 55.48739258 91.44094727 55.89770508 90.52563477 C57.08520508 88.33813477 57.08520508 88.33813477 58.59301758 87.22094727 C61.79012385 83.18690218 61.30752704 77.29914548 60.96655273 72.3659668 C60.07725416 65.15342707 56.27518455 60.8639416 50.9140625 56.20751953 C41.71044169 49.77258143 28.88606726 51.65433458 18.21020508 51.96313477 C15.67249228 51.98517647 13.13471584 52.00085632 10.59692383 52.01000977 C4.42317456 52.04599315 -1.74333914 52.16820812 -7.91479492 52.33813477 C-8.24479492 45.73813477 -8.57479492 39.13813477 -8.91479492 32.33813477 C-0.70836196 32.15688497 7.49649751 32.01034438 15.70439911 31.92363739 C19.51633977 31.88200695 23.32683226 31.82561353 27.13793945 31.73461914 C30.82094891 31.64724064 34.50257222 31.5997694 38.1865387 31.57911682 C39.58685621 31.56441403 40.98710371 31.53570012 42.38682556 31.49229431 C53.29775611 31.16761734 53.29775611 31.16761734 57.77880859 34.10205078 C59.82634091 36.08503035 61.54706161 37.94049889 63.08520508 40.33813477 C63.08520508 40.99813477 63.08520508 41.65813477 63.08520508 42.33813477 C63.64723633 42.57532227 64.20926758 42.81250977 64.78833008 43.05688477 C67.6041455 44.62761173 69.56475924 46.55284941 71.83520508 48.83813477 C72.63442383 49.63219727 73.43364258 50.42625977 74.25708008 51.24438477 C76.08520508 53.33813477 76.08520508 53.33813477 76.08520508 55.33813477 C77.40520508 55.99813477 78.72520508 56.65813477 80.08520508 57.33813477 C80.3851074 62.38725957 80.60099295 67.43106523 80.74438477 72.48706055 C80.80421358 74.20054497 80.88572366 75.91343041 80.99047852 77.62475586 C81.88486437 92.62764012 81.88486437 92.62764012 77.39575195 98.14868164 C74.52459951 101.18089846 71.34934178 103.74314018 68.08520508 106.33813477 C67.75520508 106.99813477 67.42520508 107.65813477 67.08520508 108.33813477 C66.42520508 108.33813477 65.76520508 108.33813477 65.08520508 108.33813477 C65.08520508 108.99813477 65.08520508 109.65813477 65.08520508 110.33813477 C63.71020508 111.96313477 63.71020508 111.96313477 62.08520508 113.33813477 C61.42520508 113.33813477 60.76520508 113.33813477 60.08520508 113.33813477 C60.08520508 113.99813477 60.08520508 114.65813477 60.08520508 115.33813477 C59.42520508 115.33813477 58.76520508 115.33813477 58.08520508 115.33813477 C58.08520508 115.99813477 58.08520508 116.65813477 58.08520508 117.33813477 C57.42520508 117.33813477 56.76520508 117.33813477 56.08520508 117.33813477 C56.08520508 117.99813477 56.08520508 118.65813477 56.08520508 119.33813477 C55.42520508 119.33813477 54.76520508 119.33813477 54.08520508 119.33813477 C54.08520508 119.99813477 54.08520508 120.65813477 54.08520508 121.33813477 C53.26136826 121.33289795 52.43753143 121.32766113 51.58872986 121.32226562 C43.80560891 121.27989446 36.02385043 121.27600122 28.24074459 121.31478882 C24.23969719 121.33338561 20.23977115 121.33736418 16.23876953 121.30737305 C12.37370546 121.27894808 8.51050934 121.28965675 4.64554024 121.32693481 C3.17484477 121.33435286 1.70400903 121.32792378 0.23344231 121.30709839 C-8.02774961 120.98053204 -8.02774961 120.98053204 -15.34909058 124.18579102 C-17.26880197 126.33354083 -17.26880197 126.33354083 -18.7275238 128.62329102 C-19.11932327 129.18918945 -19.51112274 129.75508789 -19.91479492 130.33813477 C-20.57479492 130.33813477 -21.23479492 130.33813477 -21.91479492 130.33813477 C-21.91479492 130.99813477 -21.91479492 131.65813477 -21.91479492 132.33813477 C-11.81405039 132.7820333 -1.71568836 133.11772622 8.39288807 133.32256603 C13.08952878 133.4209888 17.77941665 133.55392458 22.47216797 133.77148438 C44.74618699 135.6413945 44.74618699 135.6413945 64.86401367 128.09448242 C70.15187443 123.26006515 74.86503721 117.77847051 78.08520508 111.33813477 C78.74520508 111.33813477 79.40520508 111.33813477 80.08520508 111.33813477 C80.08520508 110.67813477 80.08520508 110.01813477 80.08520508 109.33813477 C80.74520508 109.33813477 81.40520508 109.33813477 82.08520508 109.33813477 C82.08520508 108.67813477 82.08520508 108.01813477 82.08520508 107.33813477 C82.74520508 107.33813477 83.40520508 107.33813477 84.08520508 107.33813477 C84.08520508 106.67813477 84.08520508 106.01813477 84.08520508 105.33813477 C84.74520508 105.33813477 85.40520508 105.33813477 86.08520508 105.33813477 C86.08520508 104.67813477 86.08520508 104.01813477 86.08520508 103.33813477 C86.74520508 103.33813477 87.40520508 103.33813477 88.08520508 103.33813477 C88.08520508 102.67813477 88.08520508 102.01813477 88.08520508 101.33813477 C88.74520508 101.33813477 89.40520508 101.33813477 90.08520508 101.33813477 C91.02310206 98.52444383 91.2345249 96.69502977 91.29052734 93.77490234 C91.31047256 92.85417435 91.33041779 91.93344635 91.35096741 90.9848175 C91.3676799 89.99410751 91.3843924 89.00339752 91.40161133 87.98266602 C91.43278297 86.45750618 91.43278297 86.45750618 91.46458435 84.90153503 C91.53000555 81.65130414 91.58893044 78.40099199 91.64770508 75.15063477 C91.69089735 72.94815238 91.73451187 70.74567824 91.77856445 68.54321289 C91.88567935 63.14160624 91.98745965 57.73991864 92.08520508 52.33813477 C91.42520508 52.33813477 90.76520508 52.33813477 90.08520508 52.33813477 C90.08520508 51.67813477 90.08520508 51.01813477 90.08520508 50.33813477 C89.42520508 50.33813477 88.76520508 50.33813477 88.08520508 50.33813477 C88.08520508 49.67813477 88.08520508 49.01813477 88.08520508 48.33813477 C87.42520508 48.33813477 86.76520508 48.33813477 86.08520508 48.33813477 C86.08520508 47.67813477 86.08520508 47.01813477 86.08520508 46.33813477 C85.42520508 46.33813477 84.76520508 46.33813477 84.08520508 46.33813477 C84.08520508 45.67813477 84.08520508 45.01813477 84.08520508 44.33813477 C83.42520508 44.33813477 82.76520508 44.33813477 82.08520508 44.33813477 C82.08520508 43.67813477 82.08520508 43.01813477 82.08520508 42.33813477 C81.15708008 41.96688477 81.15708008 41.96688477 80.21020508 41.58813477 C77.73451821 40.13184837 77.13395505 38.9600097 76.08520508 36.33813477 C75.42520508 36.33813477 74.76520508 36.33813477 74.08520508 36.33813477 C74.08520508 35.67813477 74.08520508 35.01813477 74.08520508 34.33813477 C73.42520508 34.33813477 72.76520508 34.33813477 72.08520508 34.33813477 C72.08520508 33.67813477 72.08520508 33.01813477 72.08520508 32.33813477 C71.42520508 32.33813477 70.76520508 32.33813477 70.08520508 32.33813477 C70.08520508 31.67813477 70.08520508 31.01813477 70.08520508 30.33813477 C69.42520508 30.33813477 68.76520508 30.33813477 68.08520508 30.33813477 C68.08520508 29.67813477 68.08520508 29.01813477 68.08520508 28.33813477 C67.42520508 28.33813477 66.76520508 28.33813477 66.08520508 28.33813477 C66.08520508 27.67813477 66.08520508 27.01813477 66.08520508 26.33813477 C65.42520508 26.33813477 64.76520508 26.33813477 64.08520508 26.33813477 C64.08520508 25.67813477 64.08520508 25.01813477 64.08520508 24.33813477 C63.44583008 24.02875977 62.80645508 23.71938477 62.14770508 23.40063477 C60.08520508 22.33813477 60.08520508 22.33813477 59.08520508 21.33813477 C56.88758621 21.22460822 54.68632569 21.18125456 52.48583984 21.16455078 C51.45168442 21.15452026 51.45168442 21.15452026 50.39663696 21.14428711 C48.89500785 21.13020683 47.39335696 21.11832233 45.89169502 21.10833931 C43.51763635 21.09197917 41.14373929 21.06874426 38.76976013 21.04344177 C32.01846312 20.97252417 25.26710006 20.91248541 18.515625 20.86132812 C14.39061979 20.82958915 10.26579946 20.78832644 6.14094353 20.74113274 C4.56566624 20.72508121 2.99034632 20.71277427 1.41501045 20.70422554 C-0.7855297 20.69211195 -2.9856329 20.66797991 -5.18603516 20.64111328 C-6.4398851 20.63080582 -7.69373505 20.62049835 -8.98558044 20.60987854 C-11.91479492 20.33813477 -11.91479492 20.33813477 -13.91479492 18.33813477 C-15.62084104 14.29749922 -16.39107361 11.53985102 -14.91479492 7.33813477 C-13.47729492 5.52563477 -13.47729492 5.52563477 -11.91479492 4.33813477 C-11.25479492 4.33813477 -10.59479492 4.33813477 -9.91479492 4.33813477 C-9.91479492 3.67813477 -9.91479492 3.01813477 -9.91479492 2.33813477 C-6.2429269 -0.10977725 -4.38299698 0.05771849 0 0 Z M-47.03979492 146.46313477 C-49.21687826 148.2652181 -49.21687826 148.2652181 -49.35229492 151.40063477 C-49.20791992 152.37000977 -49.06354492 153.33938477 -48.91479492 154.33813477 C-46.07721692 156.68827635 -46.07721692 156.68827635 -42.78979492 156.02563477 C-40.0339307 155.63169156 -40.0339307 155.63169156 -38.91479492 154.33813477 C-38.4977737 151.42236566 -38.4977737 151.42236566 -38.91479492 148.33813477 C-41.74151579 145.5114139 -43.38570435 144.52861623 -47.03979492 146.46313477 Z " fill="#E1D0C1" transform="translate(298.914794921875,207.661865234375)"/>
<path d="M0 0 C0.33 0 0.66 0 1 0 C2.18901619 29.44692398 2.3053205 58.91090275 2.51740873 88.37735021 C2.56762686 95.33320261 2.62222296 102.28901887 2.67708123 109.24483597 C2.78938691 123.49652333 2.89652574 137.74824591 3 152 C2.34 152 1.68 152 1 152 C-0.54274155 148.56110866 -1.24971463 145.87768897 -1.24723816 142.11413574 C-1.25143265 141.15630188 -1.25562714 140.19846802 -1.25994873 139.21160889 C-1.25432922 138.17175842 -1.24870972 137.13190796 -1.24291992 136.06054688 C-1.24481827 134.95547791 -1.24671661 133.85040894 -1.24867249 132.71185303 C-1.25238381 129.04741368 -1.24165464 125.38317189 -1.23046875 121.71875 C-1.22927499 119.14978051 -1.2288242 116.58081058 -1.2290802 114.01184082 C-1.2275137 108.60812473 -1.21947006 103.204479 -1.20581055 97.80078125 C-1.19027543 91.6340591 -1.18480588 85.46739904 -1.1855461 79.3006587 C-1.18616767 73.30517101 -1.18083851 67.30970759 -1.17275429 61.31422424 C-1.16962333 58.79830542 -1.16761365 56.28238489 -1.16686058 53.76646423 C-1.15563167 35.82147695 -0.72299269 17.92922234 0 0 Z " fill="#E9DFD6" transform="translate(114,145)"/>
<path d="M0 0 C0.66 0.33 1.32 0.66 2 1 C1.67 1.66 1.34 2.32 1 3 C0.34 2.67 -0.32 2.34 -1 2 C-1.0825 2.94875 -1.165 3.8975 -1.25 4.875 C-2 8 -2 8 -3.875 9.375 C-6 10 -6 10 -9 10 C-9.103125 10.639375 -9.20625 11.27875 -9.3125 11.9375 C-9.539375 12.618125 -9.76625 13.29875 -10 14 C-10.99 14.33 -11.98 14.66 -13 15 C-13.7136591 17.31939207 -14.3747292 19.65523449 -15 22 C-16.625 24.9375 -16.625 24.9375 -18 27 C-19.98 26.67 -21.96 26.34 -24 26 C-23.50783409 21.75752987 -21.11589137 19.81135649 -18.125 16.9375 C-17.24070312 16.08027344 -16.35640625 15.22304687 -15.4453125 14.33984375 C-14.63835937 13.56769531 -13.83140625 12.79554688 -13 12 C-12.44054687 11.40316406 -11.88109375 10.80632812 -11.3046875 10.19140625 C-10 9 -10 9 -8 9 C-8 8.34 -8 7.68 -8 7 C-7.34 7 -6.68 7 -6 7 C-6 6.34 -6 5.68 -6 5 C-5.34 5 -4.68 5 -4 5 C-4 4.34 -4 3.68 -4 3 C-3.34 3 -2.68 3 -2 3 C-2 2.34 -2 1.68 -2 1 C-1.34 0.67 -0.68 0.34 0 0 Z " fill="#EBDBCE" transform="translate(302,155)"/>
<path d="M0 0 C0.33 1.32 0.66 2.64 1 4 C-2 6 -2 6 -6 6 C-6 6.66 -6 7.32 -6 8 C-6.33 8.33 -6.66 8.66 -7 9 C-6.34 9.66 -5.68 10.32 -5 11 C-5.66 11 -6.32 11 -7 11 C-7.33 11.66 -7.66 12.32 -8 13 C-8.33 12.34 -8.66 11.68 -9 11 C-9.48210937 11.721875 -9.96421875 12.44375 -10.4609375 13.1875 C-11.09257812 14.115625 -11.72421875 15.04375 -12.375 16 C-13.00148438 16.928125 -13.62796875 17.85625 -14.2734375 18.8125 C-14.84320313 19.534375 -15.41296875 20.25625 -16 21 C-16.66 21 -17.32 21 -18 21 C-18 21.66 -18 22.32 -18 23 C-18.639375 23.28875 -19.27875 23.5775 -19.9375 23.875 C-22.15206079 24.82823451 -22.15206079 24.82823451 -23 27 C-23.99 26.67 -24.98 26.34 -26 26 C-22.09151881 21.30982258 -18.02043854 16.94933947 -13.63671875 12.69921875 C-11.91730963 11.08328716 -11.91730963 11.08328716 -11 9 C-10.34 9 -9.68 9 -9 9 C-9 8.34 -9 7.68 -9 7 C-8.34 7 -7.68 7 -7 7 C-7 6.34 -7 5.68 -7 5 C-6.34 5 -5.68 5 -5 5 C-5 4.34 -5 3.68 -5 3 C-4.34 3 -3.68 3 -3 3 C-3 2.34 -3 1.68 -3 1 C-2.01 0.67 -1.02 0.34 0 0 Z " fill="#BFB5A9" transform="translate(388,310)"/>
<path d="M0 0 C20.13 0 40.26 0 61 0 C61 0.66 61 1.32 61 2 C60.33613281 2.03738281 59.67226563 2.07476562 58.98828125 2.11328125 C53.92963621 2.4899103 50.15819181 2.81205295 46 6 C45.505 3.525 45.505 3.525 45 1 C30.15 1 15.3 1 0 1 C0 0.67 0 0.34 0 0 Z " fill="#726C67" transform="translate(304,208)"/>
<path d="M0 0 C2.64 0 5.28 0 8 0 C7.34 0.99 6.68 1.98 6 3 C5.01 3 4.02 3 3 3 C3 3.66 3 4.32 3 5 C-15.81 5 -34.62 5 -54 5 C-53.67 4.01 -53.34 3.02 -53 2 C-53 2.66 -53 3.32 -53 4 C-36.5 4 -20 4 -3 4 C-2.67 3.01 -2.34 2.02 -2 1 C-1.34 1.33 -0.68 1.66 0 2 C0 1.34 0 0.68 0 0 Z " fill="#EDDED3" transform="translate(364,168)"/>
<path d="M0 0 C0.66 0.33 1.32 0.66 2 1 C2.13917666 8.86684766 2.24570891 16.73340566 2.31087303 24.60117626 C2.3421535 28.2548243 2.38456156 31.9076286 2.45263672 35.56079102 C2.51795366 39.08811509 2.55373076 42.61462911 2.56926346 46.14251137 C2.58570435 48.13964715 2.63252511 50.13645805 2.67977905 52.13310242 C2.68307932 61.02405334 2.68307932 61.02405334 0.62432861 63.96548462 C-1.03662109 65.36450195 -1.03662109 65.36450195 -4 67 C-3.67 65.35 -3.34 63.7 -3 62 C-2.34 62 -1.68 62 -1 62 C-1 61.34 -1 60.68 -1 60 C-0.34 60 0.32 60 1 60 C0.67 40.2 0.34 20.4 0 0 Z " fill="#CBC3BD" transform="translate(409,252)"/>
<path d="M0 0 C0.99 0.33 1.98 0.66 3 1 C2.55557844 5.82763807 0.56242682 8.00501451 -2.8125 11.375 C-3.68519531 12.26960937 -4.55789062 13.16421875 -5.45703125 14.0859375 C-8 16 -8 16 -10.18359375 15.91796875 C-12.60989131 14.69177536 -14.18953203 13.00444668 -16 11 C-14.35 10.67 -12.7 10.34 -11 10 C-11 9.01 -11 8.02 -11 7 C-10.01 7.33 -9.02 7.66 -8 8 C-8 9.32 -8 10.64 -8 12 C-7.01 10.35 -6.02 8.7 -5 7 C-4.01 7.33 -3.02 7.66 -2 8 C-2 6.68 -2 5.36 -2 4 C-1.34 4 -0.68 4 0 4 C0 2.68 0 1.36 0 0 Z " fill="#A8A098" transform="translate(223,170)"/>
<path d="M0 0 C0.33 0.66 0.66 1.32 1 2 C3.52733235 2.65555119 3.52733235 2.65555119 6 3 C4.02 3.99 4.02 3.99 2 5 C2 6.65 2 8.3 2 10 C0.68 10 -0.64 10 -2 10 C-3.0209375 10.3403125 -3.0209375 10.3403125 -4.0625 10.6875 C-4.701875 10.790625 -5.34125 10.89375 -6 11 C-7.75 9.5625 -7.75 9.5625 -9 8 C-7.75 5.5 -7.75 5.5 -6 3 C-4.68 3 -3.36 3 -2 3 C-2.33 2.34 -2.66 1.68 -3 1 C-2.01 0.67 -1.02 0.34 0 0 Z " fill="#EDD9C8" transform="translate(378,152)"/>
<path d="M0 0 C0.99 0.33 1.98 0.66 3 1 C3 1.66 3 2.32 3 3 C3.639375 3.2475 4.27875 3.495 4.9375 3.75 C7 5 7 5 7.96875 6.71875 C8 9 8 9 5.69140625 11.796875 C4.66082506 12.79421164 3.61719591 13.77820038 2.5625 14.75 C2.03333984 15.25660156 1.50417969 15.76320312 0.95898438 16.28515625 C-0.34977101 17.53495869 -1.67351959 18.76902618 -3 20 C-3.625 18.1875 -3.625 18.1875 -4 16 C-3.34 15.01 -2.68 14.02 -2 13 C-1.34 13 -0.68 13 0 13 C0.19658808 11.58456585 0.38187546 10.16755969 0.5625 8.75 C0.66691406 7.96109375 0.77132812 7.1721875 0.87890625 6.359375 C1.00027349 3.99467126 0.69633257 2.2488963 0 0 Z " fill="#B6ABA2" transform="translate(242,142)"/>
<path d="M0 0 C0.6875 1.75 0.6875 1.75 1 4 C-0.3125 6.25 -0.3125 6.25 -2 8 C-2.66 8 -3.32 8 -4 8 C-4 8.99 -4 9.98 -4 11 C-7.68659288 14.77384952 -11.7388382 16.61503694 -17 17 C-12.93362093 12.79807496 -8.59926876 8.94478484 -4.20703125 5.0859375 C-1.84402132 3.00835941 -1.84402132 3.00835941 0 0 Z " fill="#B9AEA5" transform="translate(250,300)"/>
<path d="M0 0 C0.33 0 0.66 0 1 0 C1.33 10.23 1.66 20.46 2 31 C1.34 31 0.68 31 0 31 C-1.64912562 27.40641304 -2.22007005 24.78027402 -2.01171875 20.83984375 C-1.96466797 19.88142578 -1.91761719 18.92300781 -1.86914062 17.93554688 C-1.77922852 16.45151367 -1.77922852 16.45151367 -1.6875 14.9375 C-1.63916016 13.94427734 -1.59082031 12.95105469 -1.54101562 11.92773438 C-1.11700269 3.95736457 -1.11700269 3.95736457 0 0 Z " fill="#E8DDD3" transform="translate(115,266)"/>
<path d="M0 0 C-0.48547205 4.36924844 -1.78781757 6.07983415 -5 9 C-5.99 10.485 -5.99 10.485 -7 12 C-7 11.34 -7 10.68 -7 10 C-7.99 10.33 -8.98 10.66 -10 11 C-8.85791626 6.08903993 -5.88128996 0 0 0 Z " fill="#C8BDB3" transform="translate(245,343)"/>
<path d="M0 0 C1.921875 0.765625 1.921875 0.765625 4 2 C6.51885919 9.55657757 6.20215374 17.10477354 6 25 C5.67 25 5.34 25 5 25 C5 20.71 5 16.42 5 12 C4.34 12 3.68 12 3 12 C3 10.68 3 9.36 3 8 C2.34 8 1.68 8 1 8 C0.67 5.36 0.34 2.72 0 0 Z " fill="#B8B0A6" transform="translate(249,242)"/>
<path d="M0 0 C0.66 0.33 1.32 0.66 2 1 C1.67 1.66 1.34 2.32 1 3 C0.34 2.67 -0.32 2.34 -1 2 C-1.0825 2.94875 -1.165 3.8975 -1.25 4.875 C-2 8 -2 8 -3.875 9.375 C-6 10 -6 10 -9 10 C-9.04125 10.61875 -9.0825 11.2375 -9.125 11.875 C-9.41375 12.57625 -9.7025 13.2775 -10 14 C-13.0625 15.25 -13.0625 15.25 -16 16 C-15.04882866 14.8274869 -14.08882991 13.66212985 -13.125 12.5 C-12.59132813 11.8503125 -12.05765625 11.200625 -11.5078125 10.53125 C-10.76144531 9.77328125 -10.76144531 9.77328125 -10 9 C-9.34 9 -8.68 9 -8 9 C-8 8.34 -8 7.68 -8 7 C-7.34 7 -6.68 7 -6 7 C-6 6.34 -6 5.68 -6 5 C-5.34 5 -4.68 5 -4 5 C-4 4.34 -4 3.68 -4 3 C-3.34 3 -2.68 3 -2 3 C-2 2.34 -2 1.68 -2 1 C-1.34 0.67 -0.68 0.34 0 0 Z " fill="#ABA49D" transform="translate(302,155)"/>
<path d="M0 0 C0.66 0 1.32 0 2 0 C2 0.66 2 1.32 2 2 C9.92 2 17.84 2 26 2 C24 4 24 4 21.66162109 4.22705078 C20.70852051 4.21657715 19.75541992 4.20610352 18.7734375 4.1953125 C17.2265625 4.18564453 17.2265625 4.18564453 15.6484375 4.17578125 C14.56820313 4.15902344 13.48796875 4.14226562 12.375 4.125 C11.28703125 4.11597656 10.1990625 4.10695313 9.078125 4.09765625 C6.38519848 4.07403409 3.69270745 4.04109556 1 4 C0.67 2.68 0.34 1.36 0 0 Z " fill="#EBDDD2" transform="translate(272,340)"/>
<path d="M0 0 C1.5 1.1875 1.5 1.1875 3 3 C3.25 5.625 3.25 5.625 3 8 C2.67 8.33 2.34 8.66 2 9 C1.71461678 12.32947093 1.55107367 15.65897628 1.37890625 18.99609375 C1 22 1 22 -1 24 C-0.97679687 23.01 -0.95359375 22.02 -0.9296875 21 C-0.81730741 14.06140739 -0.8225962 7.66829915 -3 1 C-2.01 0.67 -1.02 0.34 0 0 Z " fill="#A3988F" transform="translate(236,245)"/>
<path d="M0 0 C1.65 0.33 3.3 0.66 5 1 C5 1.66 5 2.32 5 3 C4.34 3 3.68 3 3 3 C3 3.66 3 4.32 3 5 C2.34 5 1.68 5 1 5 C1 5.66 1 6.32 1 7 C0.34 7 -0.32 7 -1 7 C-1 7.66 -1 8.32 -1 9 C-1.66 9 -2.32 9 -3 9 C-3 9.66 -3 10.32 -3 11 C-3.66 11 -4.32 11 -5 11 C-5.33 10.01 -5.66 9.02 -6 8 C-5.01 8 -4.02 8 -3 8 C-3.33 7.01 -3.66 6.02 -4 5 C-2.0625 2.3125 -2.0625 2.3125 0 0 Z " fill="#C7BCAF" transform="translate(126,305)"/>
<path d="M0 0 C0.33 1.32 0.66 2.64 1 4 C-2 6 -2 6 -6 6 C-6 6.66 -6 7.32 -6 8 C-6.33 8.33 -6.66 8.66 -7 9 C-6.34 9.66 -5.68 10.32 -5 11 C-5.66 11 -6.32 11 -7 11 C-7.33 11.66 -7.66 12.32 -8 13 C-8.33 12.34 -8.66 11.68 -9 11 C-9.99 11.99 -10.98 12.98 -12 14 C-12.66 13.67 -13.32 13.34 -14 13 C-12.625 11 -12.625 11 -11 9 C-10.34 9 -9.68 9 -9 9 C-9 8.34 -9 7.68 -9 7 C-8.34 7 -7.68 7 -7 7 C-7 6.34 -7 5.68 -7 5 C-6.34 5 -5.68 5 -5 5 C-5 4.34 -5 3.68 -5 3 C-4.34 3 -3.68 3 -3 3 C-3 2.34 -3 1.68 -3 1 C-2.01 0.67 -1.02 0.34 0 0 Z " fill="#BFB4A7" transform="translate(388,310)"/>
<path d="M0 0 C0.66 0 1.32 0 2 0 C1.34 1.65 0.68 3.3 0 5 C-0.66 5 -1.32 5 -2 5 C-2.0825 5.78375 -2.165 6.5675 -2.25 7.375 C-3 10 -3 10 -4.8125 11.375 C-7.30534286 12.08724082 -8.58716168 11.86172797 -11 11 C-9.37660195 9.29115995 -7.70680947 7.62553283 -6 6 C-5.34 6 -4.68 6 -4 6 C-4 5.34 -4 4.68 -4 4 C-3.34 4 -2.68 4 -2 4 C-2 3.34 -2 2.68 -2 2 C-1.34 2 -0.68 2 0 2 C0 1.34 0 0.68 0 0 Z " fill="#C3B7AD" transform="translate(270,186)"/>
<path d="M0 0 C0.99 0.33 1.98 0.66 3 1 C-0.96 4.96 -4.92 8.92 -9 13 C-9.99 12.67 -10.98 12.34 -12 12 C-11.67 11.01 -11.34 10.02 -11 9 C-9.35 8.67 -7.7 8.34 -6 8 C-6 7.34 -6 6.68 -6 6 C-5.34 6 -4.68 6 -4 6 C-3.896875 5.38125 -3.79375 4.7625 -3.6875 4.125 C-3 2 -3 2 0 0 Z " fill="#A69D94" transform="translate(398,323)"/>
<path d="M0 0 C0.99 0.33 1.98 0.66 3 1 C2.01 1.495 2.01 1.495 1 2 C0.690625 2.969375 0.38125 3.93875 0.0625 4.9375 C-1 8 -1 8 -4 10 C-4.99 9.34 -5.98 8.68 -7 8 C-5.51218185 4.21282653 -3.38011591 2.22592999 0 0 Z " fill="#C9BCB0" transform="translate(255,334)"/>
<path d="M0 0 C0.33 0.66 0.66 1.32 1 2 C0.34 2 -0.32 2 -1 2 C-1 2.66 -1 3.32 -1 4 C-0.34 4 0.32 4 1 4 C1 4.66 1 5.32 1 6 C-0.75 7.5078125 -0.75 7.5078125 -3 9.125 C-3.7425 9.66382813 -4.485 10.20265625 -5.25 10.7578125 C-5.8275 11.16773438 -6.405 11.57765625 -7 12 C-7.66 11.34 -8.32 10.68 -9 10 C-8.06409496 8.8944811 -7.12620142 7.79064547 -6.1875 6.6875 C-5.66542969 6.07261719 -5.14335937 5.45773437 -4.60546875 4.82421875 C-3.12827531 3.14575321 -1.59960869 1.56117966 0 0 Z " fill="#BEB2AA" transform="translate(278,310)"/>
<path d="M0 0 C0.66 0.33 1.32 0.66 2 1 C0.63835184 6.14400416 -2.6884072 9.1256048 -7 12 C-9.2265625 12.671875 -9.2265625 12.671875 -11 13 C-11 12.34 -11 11.68 -11 11 C-10.34 11 -9.68 11 -9 11 C-9 10.34 -9 9.68 -9 9 C-8.34 9 -7.68 9 -7 9 C-7 8.34 -7 7.68 -7 7 C-6.34 7 -5.68 7 -5 7 C-5 6.34 -5 5.68 -5 5 C-4.34 5 -3.68 5 -3 5 C-2.67 4.01 -2.34 3.02 -2 2 C-1.34 2 -0.68 2 0 2 C0 1.34 0 0.68 0 0 Z " fill="#A39A90" transform="translate(141,304)"/>
<path d="M0 0 C1.12894876 0.93274109 2.25300876 1.87140122 3.375 2.8125 C4.00148438 3.33457031 4.62796875 3.85664063 5.2734375 4.39453125 C7 6 7 6 9 9 C7.68 9.33 6.36 9.66 5 10 C5 9.01 5 8.02 5 7 C3.35 6.67 1.7 6.34 0 6 C-1.125 2.25 -1.125 2.25 0 0 Z " fill="#BEB2A6" transform="translate(396,239)"/>
<path d="M0 0 C0.33 0.66 0.66 1.32 1 2 C1.66 2.33 2.32 2.66 3 3 C2.113125 3.556875 1.22625 4.11375 0.3125 4.6875 C-2.84279378 6.77853792 -5.39868111 9.24566235 -8 12 C-8.66 11.67 -9.32 11.34 -10 11 C-8.85455923 7.56367769 -7.7288492 6.66528415 -5 4.375 C-4.278125 3.76398438 -3.55625 3.15296875 -2.8125 2.5234375 C-2.214375 2.02070313 -1.61625 1.51796875 -1 1 C-0.67 0.67 -0.34 0.34 0 0 Z " fill="#C2B8AE" transform="translate(236,179)"/>
<path d="M0 0 C0.66 0.33 1.32 0.66 2 1 C1.85562749 7.92988052 -1.22255343 11.19760593 -6 16 C-6.66 15.67 -7.32 15.34 -8 15 C-8 14.34 -8 13.68 -8 13 C-7.01 13 -6.02 13 -5 13 C-4.67 11.68 -4.34 10.36 -4 9 C-3.34 9 -2.68 9 -2 9 C-2 8.34 -2 7.68 -2 7 C-1.34 7 -0.68 7 0 7 C-0.185625 6.030625 -0.37125 5.06125 -0.5625 4.0625 C-0.706875 3.051875 -0.85125 2.04125 -1 1 C-0.67 0.67 -0.34 0.34 0 0 Z " fill="#A69E94" transform="translate(138,346)"/>
<path d="M0 0 C0.99 0.33 1.98 0.66 3 1 C3 3.31 3 5.62 3 8 C0.62051228 7.82374165 -0.70225849 7.30280227 -2.37890625 5.59765625 C-3.62115486 4.09350908 -4.81376056 2.54870149 -6 1 C-3.525 1.495 -3.525 1.495 -1 2 C-0.67 1.34 -0.34 0.68 0 0 Z " fill="#EEDFD2" transform="translate(380,241)"/>
<path d="M0 0 C0.33 0.66 0.66 1.32 1 2 C2.65 1.67 4.3 1.34 6 1 C5.04578192 2.14926266 4.08647955 3.29430541 3.125 4.4375 C2.59132812 5.07558594 2.05765625 5.71367187 1.5078125 6.37109375 C0 8 0 8 -2 9 C-2.66 7.68 -3.32 6.36 -4 5 C-3.34 4.01 -2.68 3.02 -2 2 C-1.34 2 -0.68 2 0 2 C0 1.34 0 0.68 0 0 Z " fill="#B3A89D" transform="translate(134,297)"/>
<path d="M0 0 C0.99 0.33 1.98 0.66 3 1 C3.33 3.31 3.66 5.62 4 8 C2.3125 8.8125 2.3125 8.8125 0 9 C-2.75 6.5625 -2.75 6.5625 -5 4 C-3.35 3.67 -1.7 3.34 0 3 C0 2.01 0 1.02 0 0 Z " fill="#C1B6AA" transform="translate(212,177)"/>
<path d="M0 0 C-0.34879632 3.25543229 -1.02133261 4.01873107 -3.5625 6.25 C-4.7690625 7.11625 -4.7690625 7.11625 -6 8 C-6 5.33333333 -6 2.66666667 -6 0 C-3.50907189 -1.24546405 -2.58919267 -0.7767578 0 0 Z " fill="#C4B7AC" transform="translate(287,154)"/>
<path d="M0 0 C0.66 0.99 1.32 1.98 2 3 C0.54735962 3.8638129 -0.9123163 4.71580454 -2.375 5.5625 C-3.59316406 6.27599609 -3.59316406 6.27599609 -4.8359375 7.00390625 C-5.55007812 7.33261719 -6.26421875 7.66132813 -7 8 C-7.66 7.67 -8.32 7.34 -9 7 C-8.67 6.01 -8.34 5.02 -8 4 C-7.34 4.33 -6.68 4.66 -6 5 C-5.7525 4.360625 -5.505 3.72125 -5.25 3.0625 C-4 1 -4 1 -1.875 0.25 C-1.25625 0.1675 -0.6375 0.085 0 0 Z " fill="#BFB3A8" transform="translate(239,332)"/>
<path d="M0 0 C0.66 0.99 1.32 1.98 2 3 C1.01 3 0.02 3 -1 3 C-1.103125 3.78375 -1.20625 4.5675 -1.3125 5.375 C-2 8 -2 8 -5 10 C-6.32 9.67 -7.64 9.34 -9 9 C-6.03 6.03 -3.06 3.06 0 0 Z " fill="#AC9E99" transform="translate(285,130)"/>
<path d="M0 0 C0.66 0 1.32 0 2 0 C1.67 1.32 1.34 2.64 1 4 C0.34 4 -0.32 4 -1 4 C-0.67 5.32 -0.34 6.64 0 8 C-2.64 8.66 -5.28 9.32 -8 10 C-8 9.34 -8 8.68 -8 8 C-7.34 8 -6.68 8 -6 8 C-6 7.34 -6 6.68 -6 6 C-5.34 6 -4.68 6 -4 6 C-4 5.34 -4 4.68 -4 4 C-3.34 4 -2.68 4 -2 4 C-2 3.34 -2 2.68 -2 2 C-1.34 2 -0.68 2 0 2 C0 1.34 0 0.68 0 0 Z " fill="#ADA297" transform="translate(151,294)"/>
<path d="M0 0 C3.16285735 1.08623384 6.1546087 2.22834127 9 4 C10.0625 7.25 10.0625 7.25 10 10 C9.34 10 8.68 10 8 10 C8 9.34 8 8.68 8 8 C7.34 8 6.68 8 6 8 C6 7.34 6 6.68 6 6 C5.34 6 4.68 6 4 6 C4 5.34 4 4.68 4 4 C3.34 4 2.68 4 2 4 C2 3.34 2 2.68 2 2 C1.34 2 0.68 2 0 2 C0 1.34 0 0.68 0 0 Z " fill="#AEA69F" transform="translate(365,234)"/>
<path d="M0 0 C3.78717347 1.48781815 5.77407001 3.61988409 8 7 C7.67 7.99 7.34 8.98 7 10 C6.01 9.67 5.02 9.34 4 9 C3.67 7.35 3.34 5.7 3 4 C2.01 3.67 1.02 3.34 0 3 C0 2.01 0 1.02 0 0 Z " fill="#BCB2AA" transform="translate(240,226)"/>
<path d="M0 0 C1.32 0.66 2.64 1.32 4 2 C2.625 4 2.625 4 1 6 C0.34 6 -0.32 6 -1 6 C-1 6.66 -1 7.32 -1 8 C-1.66 8 -2.32 8 -3 8 C-3 8.66 -3 9.32 -3 10 C-3.66 9.67 -4.32 9.34 -5 9 C-5 7.68 -5 6.36 -5 5 C-3.68 4.67 -2.36 4.34 -1 4 C-0.67 2.68 -0.34 1.36 0 0 Z " fill="#BBAFA6" transform="translate(376,160)"/>
<path d="M0 0 C2.97 0.495 2.97 0.495 6 1 C5.21654285 2.17219543 4.42297164 3.33763668 3.625 4.5 C3.18414062 5.1496875 2.74328125 5.799375 2.2890625 6.46875 C1.86367188 6.9740625 1.43828125 7.479375 1 8 C0.34 8 -0.32 8 -1 8 C-1 8.66 -1 9.32 -1 10 C-1.66 10 -2.32 10 -3 10 C-2.67 8.68 -2.34 7.36 -2 6 C-1.34 6 -0.68 6 0 6 C0 4.02 0 2.04 0 0 Z " fill="#BFB3A9" transform="translate(278,330)"/>
<path d="M0 0 C0.66 0.33 1.32 0.66 2 1 C-3.96583144 9.6309795 -3.96583144 9.6309795 -9 12 C-9.33 11.34 -9.66 10.68 -10 10 C-9.34 10 -8.68 10 -8 10 C-8 9.34 -8 8.68 -8 8 C-7.34 8 -6.68 8 -6 8 C-6 7.34 -6 6.68 -6 6 C-5.34 6 -4.68 6 -4 6 C-4 5.34 -4 4.68 -4 4 C-2.70766393 2.62689293 -1.37562854 1.28965176 0 0 Z " fill="#908880" transform="translate(252,162)"/>
<path d="M0 0 C0.8125 1.6875 0.8125 1.6875 1 4 C-1.25 6.75 -1.25 6.75 -4 9 C-4.99 9 -5.98 9 -7 9 C-7 9.66 -7 10.32 -7 11 C-7.66 10.67 -8.32 10.34 -9 10 C-8.67 9.34 -8.34 8.68 -8 8 C-7.34 8 -6.68 8 -6 8 C-6 7.34 -6 6.68 -6 6 C-5.34 6 -4.68 6 -4 6 C-4 5.34 -4 4.68 -4 4 C-3.34 4 -2.68 4 -2 4 C-1.34 2.68 -0.68 1.36 0 0 Z " fill="#ADA59C" transform="translate(356,296)"/>
<path d="M0 0 C1.98 0 3.96 0 6 0 C5.67 2.64 5.34 5.28 5 8 C3.02 6.35 1.04 4.7 -1 3 C-0.67 2.01 -0.34 1.02 0 0 Z " fill="#C6B9AC" transform="translate(229,154)"/>
<path d="M0 0 C-1.875 5.875 -1.875 5.875 -3 7 C-3.07148199 8.35243917 -3.08399454 9.70834367 -3.0625 11.0625 C-3.041875 12.361875 -3.02125 13.66125 -3 15 C-3.99 15.495 -3.99 15.495 -5 16 C-5.0810206 13.89646505 -5.13919907 11.79204048 -5.1875 9.6875 C-5.22230469 8.51574219 -5.25710937 7.34398437 -5.29296875 6.13671875 C-5 3 -5 3 -3.61328125 1.08203125 C-2 0 -2 0 0 0 Z " fill="#F0E6DC" transform="translate(255,204)"/>
<path d="M0 0 C0.99 0.33 1.98 0.66 3 1 C2.04578192 2.14926266 1.08647955 3.29430541 0.125 4.4375 C-0.40867187 5.07558594 -0.94234375 5.71367187 -1.4921875 6.37109375 C-3 8 -3 8 -5 9 C-5.33 7.68 -5.66 6.36 -6 5 C-5.195625 4.731875 -4.39125 4.46375 -3.5625 4.1875 C-2.716875 3.795625 -1.87125 3.40375 -1 3 C-0.67 2.01 -0.34 1.02 0 0 Z " fill="#BCB3AB" transform="translate(257,181)"/>
<path d="M0 0 C3.21029714 1.10699901 4.00968977 2.01603825 5.8125 5 C6.204375 5.99 6.59625 6.98 7 8 C6.67 8.66 6.34 9.32 6 10 C2.46413986 6.82679218 0.41421969 4.83256305 0 0 Z " fill="#B5ACA2" transform="translate(379,132)"/>
<path d="M0 0 C1.2065625 0.0309375 1.2065625 0.0309375 2.4375 0.0625 C-1.05337093 4.0667343 -3.21201939 5.68921065 -8.5625 6.0625 C-2.5625 0.0625 -2.5625 0.0625 0 0 Z " fill="#C2B7AE" transform="translate(241.5625,310.9375)"/>
<path d="M0 0 C1.33333333 2.66666667 2.66666667 5.33333333 4 8 C2.35 8.33 0.7 8.66 -1 9 C-2.0326802 6.21176345 -2.04509293 5.1322726 -1.0625 2.25 C-0.711875 1.5075 -0.36125 0.765 0 0 Z " fill="#EBDDD0" transform="translate(260,285)"/>
<path d="M0 0 C0.66 0.33 1.32 0.66 2 1 C2 1.66 2 2.32 2 3 C1.34 3 0.68 3 0 3 C0 3.99 0 4.98 0 6 C-0.66 6 -1.32 6 -2 6 C-2.33 6.66 -2.66 7.32 -3 8 C-3 7.34 -3 6.68 -3 6 C-3.66 6 -4.32 6 -5 6 C-5.33 6.99 -5.66 7.98 -6 9 C-6.66 8.67 -7.32 8.34 -8 8 C-5.33333333 5.33333333 -2.66666667 2.66666667 0 0 Z " fill="#B0A69C" transform="translate(258,198)"/>
<path d="M0 0 C0.66 0 1.32 0 2 0 C1.84518205 2.70931419 1.51827919 4.46584039 -0.40234375 6.4453125 C-1.89771708 7.67679642 -3.4462924 8.8429837 -5 10 C-4.125 5.25 -4.125 5.25 -3 3 C-2.34 3 -1.68 3 -1 3 C-0.67 2.01 -0.34 1.02 0 0 Z " fill="#B0A69C" transform="translate(243,152)"/>
<path d="M0 0 C1.5625 1.75 1.5625 1.75 1.5625 4.75 C0.7271875 4.255 0.7271875 4.255 -0.125 3.75 C-2.7742035 2.60439849 -4.5782807 2.52427216 -7.4375 2.75 C-8.4275 3.245 -8.4275 3.245 -9.4375 3.75 C-9.4375 2.43 -9.4375 1.11 -9.4375 -0.25 C-3.10121681 -1.5903676 -3.10121681 -1.5903676 0 0 Z " fill="#D0C4B9" transform="translate(370.4375,140.25)"/>
<path d="M0 0 C1.0828125 0.9590625 1.0828125 0.9590625 2.1875 1.9375 C4.98191184 3.98673535 6.61663274 4.61332946 10 5 C10.33 5.99 10.66 6.98 11 8 C10.67 8.66 10.34 9.32 10 10 C9.34 10 8.68 10 8 10 C8 9.34 8 8.68 8 8 C7.34 8 6.68 8 6 8 C6 7.34 6 6.68 6 6 C5.38125 5.7525 4.7625 5.505 4.125 5.25 C1.64931313 3.79371361 1.04874998 2.62187494 0 0 Z " fill="#8F8882" transform="translate(375,244)"/>
<path d="M0 0 C4.29 0.33 8.58 0.66 13 1 C13 1.33 13 1.66 13 2 C12.38511719 2.03738281 11.77023437 2.07476562 11.13671875 2.11328125 C9.92435547 2.21189453 9.92435547 2.21189453 8.6875 2.3125 C7.88699219 2.37050781 7.08648437 2.42851562 6.26171875 2.48828125 C3.63727666 3.08206694 2.69179328 3.95780294 1 6 C0.67 4.02 0.34 2.04 0 0 Z " fill="#E0D7CE" transform="translate(290,241)"/>
<path d="M0 0 C0.66 0.66 1.32 1.32 2 2 C-0.64 4.64 -3.28 7.28 -6 10 C-6.66 9.34 -7.32 8.68 -8 8 C-3.375 3.125 -3.375 3.125 0 2 C0 1.34 0 0.68 0 0 Z " fill="#B7ADA5" transform="translate(283,197)"/>
<path d="M0 0 C0.33 0.66 0.66 1.32 1 2 C1.66 2 2.32 2 3 2 C3 2.66 3 3.32 3 4 C3.66 4 4.32 4 5 4 C5 4.66 5 5.32 5 6 C5.66 6 6.32 6 7 6 C7 6.66 7 7.32 7 8 C7.66 8 8.32 8 9 8 C8.67 8.66 8.34 9.32 8 10 C7.01 9.67 6.02 9.34 5 9 C5 8.34 5 7.68 5 7 C4.01 6.67 3.02 6.34 2 6 C2 5.01 2 4.02 2 3 C0.68 2.67 -0.64 2.34 -2 2 C-1.34 1.34 -0.68 0.68 0 0 Z " fill="#A89F99" transform="translate(374,217)"/>
<path d="M0 0 C0.33 0.66 0.66 1.32 1 2 C1.99 2.66 2.98 3.32 4 4 C0.52674819 5.1577506 -2.36067448 5.06866652 -6 5 C-5.25 3.0625 -5.25 3.0625 -4 1 C-1.875 0.25 -1.875 0.25 0 0 Z " fill="#EBDBCD" transform="translate(223,337)"/>
<path d="M0 0 C1.04449911 3.13349732 0.93423645 3.98968256 0 7 C-2.31 7.33 -4.62 7.66 -7 8 C-6.02133662 6.85373678 -5.04205413 5.70800212 -4.0625 4.5625 C-3.51722656 3.92441406 -2.97195313 3.28632813 -2.41015625 2.62890625 C-1.63204305 1.73008851 -0.84063472 0.84063472 0 0 Z " fill="#A69A91" transform="translate(285,171)"/>
<path d="M0 0 C2.97 0.495 2.97 0.495 6 1 C5.19152271 2.16945792 4.37810888 3.33550461 3.5625 4.5 C3.11003906 5.1496875 2.65757812 5.799375 2.19140625 6.46875 C1.79824219 6.9740625 1.40507812 7.479375 1 8 C0.67 8 0.34 8 0 8 C0 5.36 0 2.72 0 0 Z " fill="#E7DBCF" transform="translate(130,161)"/>
<path d="M0 0 C3.63 0 7.26 0 11 0 C7 3 7 3 3.25 2.6875 C2.1775 2.460625 1.105 2.23375 0 2 C0 1.34 0 0.68 0 0 Z " fill="#EFE3D7" transform="translate(292,209)"/>
<path d="M0 0 C-1.49097658 3.7952131 -3.75700849 5.61042731 -7 8 C-6.75 5.125 -6.75 5.125 -6 2 C-3.84139132 0.46808416 -2.63707871 0 0 0 Z " fill="#BCB2A8" transform="translate(267,174)"/>
<path d="M0 0 C0.66 0 1.32 0 2 0 C2.14285714 7.42857143 2.14285714 7.42857143 1 11 C0.34 10.67 -0.32 10.34 -1 10 C-1.02689216 8.52093108 -1.04634621 7.04172517 -1.0625 5.5625 C-1.07410156 4.73878906 -1.08570313 3.91507812 -1.09765625 3.06640625 C-1 1 -1 1 0 0 Z " fill="#E6DAD2" transform="translate(236,353)"/>
<path d="M0 0 C-0.0625 1.8125 -0.0625 1.8125 -1 4 C-4.5625 5.75 -4.5625 5.75 -8 7 C-6.47663111 3.31852519 -4.31953005 0 0 0 Z " fill="#A79D93" transform="translate(245,343)"/>
<path d="M0 0 C0.99 0.33 1.98 0.66 3 1 C0.35039045 4.63094642 -2.01824456 6.89851796 -6 9 C-5.6875 7.125 -5.6875 7.125 -5 5 C-2 3 -2 3 0 2 C0 1.34 0 0.68 0 0 Z " fill="#989084" transform="translate(253,322)"/>
<path d="M0 0 C0.99 0 1.98 0 3 0 C1.70700306 2.88437779 0.34058637 4.87219421 -2 7 C-2.66 6.67 -3.32 6.34 -4 6 C-2.84826645 3.53199953 -1.95216435 1.95216435 0 0 Z " fill="#CBC1B6" transform="translate(373,324)"/>
<path d="M0 0 C2.5722047 1.28610235 3.00974907 2.33393981 4 5 C3.625 7.25 3.625 7.25 3 9 C1 8 1 8 -1 5 C-1 1 -1 1 0 0 Z " fill="#BDB1A7" transform="translate(271,216)"/>
<path d="M0 0 C0.99 0.66 1.98 1.32 3 2 C0.63404067 4.61500768 -1.86049226 6.38999603 -5 8 C-5.66 7.67 -6.32 7.34 -7 7 C-4.69 4.69 -2.38 2.38 0 0 Z " fill="#B5AAA2" transform="translate(264,151)"/>
<path d="M0 0 C4.71403788 0.47939368 8.66579301 0.96834048 13 3 C9.8035914 4.06546953 7.34252724 4.07427838 4 4 C4 3.01 4 2.02 4 1 C2.68 0.67 1.36 0.34 0 0 Z " fill="#968F87" transform="translate(211,128)"/>
<path d="M0 0 C1.08667969 0.29197266 1.08667969 0.29197266 2.1953125 0.58984375 C2.74960937 0.74582031 3.30390625 0.90179688 3.875 1.0625 C3.875 1.3925 3.875 1.7225 3.875 2.0625 C-0.415 2.0625 -4.705 2.0625 -9.125 2.0625 C-4.27357143 -1.17178571 -4.27357143 -1.17178571 0 0 Z " fill="#A29991" transform="translate(257.125,376.9375)"/>
<path d="M0 0 C0.33 1.32 0.66 2.64 1 4 C-1.97 6.475 -1.97 6.475 -5 9 C-4.67 7.35 -4.34 5.7 -4 4 C-3.34 4 -2.68 4 -2 4 C-2 3.34 -2 2.68 -2 2 C-1.34 2 -0.68 2 0 2 C0 1.34 0 0.68 0 0 Z " fill="#B5ADA4" transform="translate(410,310)"/>
<path d="M0 0 C0.66 0.33 1.32 0.66 2 1 C1.67 1.66 1.34 2.32 1 3 C0.34 3 -0.32 3 -1 3 C-1.33 4.65 -1.66 6.3 -2 8 C-2.99 8 -3.98 8 -5 8 C-5.33 7.34 -5.66 6.68 -6 6 C-5.34 6 -4.68 6 -4 6 C-4 5.34 -4 4.68 -4 4 C-3.34 4 -2.68 4 -2 4 C-2 3.34 -2 2.68 -2 2 C-1.34 2 -0.68 2 0 2 C0 1.34 0 0.68 0 0 Z " fill="#8A827A" transform="translate(229,279)"/>
<path d="M0 0 C0 0.99 0 1.98 0 3 C-0.66 3 -1.32 3 -2 3 C-2.28875 3.639375 -2.5775 4.27875 -2.875 4.9375 C-4 7 -4 7 -6 8 C-5.62403791 5.21788056 -5.32681541 3.4120716 -3.5625 1.1875 C-2 0 -2 0 0 0 Z " fill="#9B938C" transform="translate(289,212)"/>
<path d="M0 0 C1.32 0 2.64 0 4 0 C2.66667905 3.99996286 0.5042173 4.83782337 -3 7 C-2.38722388 4.03824877 -1.74627478 2.61941217 0 0 Z " fill="#A39C92" transform="translate(302,178)"/>
<path d="M0 0 C0.66 0.33 1.32 0.66 2 1 C1.67 1.66 1.34 2.32 1 3 C0.34 3 -0.32 3 -1 3 C-1.33 4.65 -1.66 6.3 -2 8 C-2.99 7.34 -3.98 6.68 -5 6 C-4.67 5.34 -4.34 4.68 -4 4 C-3.34 4 -2.68 4 -2 4 C-2 3.34 -2 2.68 -2 2 C-1.34 2 -0.68 2 0 2 C0 1.34 0 0.68 0 0 Z " fill="#CEC3B8" transform="translate(270,145)"/>
<path d="M0 0 C3.68754757 0.49831724 5.60490662 1.10067643 8 4 C6.02 4.66 4.04 5.32 2 6 C1.34 4.02 0.68 2.04 0 0 Z " fill="#CBC0B4" transform="translate(231,136)"/>
<path d="M0 0 C0.66 0.33 1.32 0.66 2 1 C1.34 3.31 0.68 5.62 0 8 C-1.32 7.34 -2.64 6.68 -4 6 C-4 5.34 -4 4.68 -4 4 C-3.34 4 -2.68 4 -2 4 C-2 3.34 -2 2.68 -2 2 C-1.34 2 -0.68 2 0 2 C0 1.34 0 0.68 0 0 Z " fill="#998E83" transform="translate(125,285)"/>
<path d="M0 0 C0.66 0 1.32 0 2 0 C1.50168276 3.68754757 0.89932357 5.60490662 -2 8 C-3.24546405 5.50907189 -2.7767578 4.58919267 -2 2 C-1.34 2 -0.68 2 0 2 C0 1.34 0 0.68 0 0 Z " fill="#D5C7BE" transform="translate(274,182)"/>
<path d="M0 0 C0.66 0.99 1.32 1.98 2 3 C-0.97 5.475 -0.97 5.475 -4 8 C-3.67 6.35 -3.34 4.7 -3 3 C-2.34 3 -1.68 3 -1 3 C-0.67 2.01 -0.34 1.02 0 0 Z " fill="#B9ADA2" transform="translate(145,314)"/>
<path d="M0 0 C1.32 0 2.64 0 4 0 C3 2 2 4 1 6 C0.34 6 -0.32 6 -1 6 C-1.33 5.01 -1.66 4.02 -2 3 C-1.34 2.01 -0.68 1.02 0 0 Z " fill="#B6ABA3" transform="translate(242,289)"/>
<path d="M0 0 C1.65 0 3.3 0 5 0 C5.66 1.32 6.32 2.64 7 4 C6.34 4.66 5.68 5.32 5 6 C5 5.34 5 4.68 5 4 C4.01 3.67 3.02 3.34 2 3 C2 2.34 2 1.68 2 1 C1.34 0.67 0.68 0.34 0 0 Z " fill="#EEDED0" transform="translate(369,128)"/>
<path d="M0 0 C2.475 0.495 2.475 0.495 5 1 C5 2.98 5 4.96 5 7 C3.29115995 5.37660195 1.62553283 3.70680947 0 2 C0 1.34 0 0.68 0 0 Z " fill="#989183" transform="translate(236,367)"/>
<path d="M0 0 C-1.75 3.875 -1.75 3.875 -4 5 C-4.66 4.67 -5.32 4.34 -6 4 C-5.67 3.01 -5.34 2.02 -5 1 C-3 0 -3 0 0 0 Z " fill="#C2B8AB" transform="translate(392,331)"/>
<path d="M0 0 C0.99 0 1.98 0 3 0 C3 1.65 3 3.3 3 5 C1.35 5.33 -0.3 5.66 -2 6 C-2 5.34 -2 4.68 -2 4 C-1.34 4 -0.68 4 0 4 C0 2.68 0 1.36 0 0 Z " fill="#BAB2A3" transform="translate(233,272)"/>
<path d="M0 0 C1.98 1.65 3.96 3.3 6 5 C5.01 5.495 5.01 5.495 4 6 C1.375 5.0625 1.375 5.0625 -1 4 C-0.67 2.68 -0.34 1.36 0 0 Z " fill="#999089" transform="translate(363,250)"/>
<path d="M0 0 C0.99 0.33 1.98 0.66 3 1 C2.01 1.33 1.02 1.66 0 2 C0 2.66 0 3.32 0 4 C-0.66 4 -1.32 4 -2 4 C-2 5.65 -2 7.3 -2 9 C-2.33 9 -2.66 9 -3 9 C-3.1875 5.625 -3.1875 5.625 -3 2 C-2.01 1.34 -1.02 0.68 0 0 Z " fill="#B2A89E" transform="translate(273,207)"/>
<path d="M0 0 C0.66 0.33 1.32 0.66 2 1 C1.67 1.66 1.34 2.32 1 3 C0.34 2.67 -0.32 2.34 -1 2 C-1.33 3.32 -1.66 4.64 -2 6 C-3.32 6.33 -4.64 6.66 -6 7 C-6 6.34 -6 5.68 -6 5 C-5.34 5 -4.68 5 -4 5 C-4 4.34 -4 3.68 -4 3 C-3.34 3 -2.68 3 -2 3 C-2 2.34 -2 1.68 -2 1 C-1.34 0.67 -0.68 0.34 0 0 Z " fill="#9B938B" transform="translate(302,155)"/>
<path d="M0 0 C0.66 0.33 1.32 0.66 2 1 C2.33 2.32 2.66 3.64 3 5 C-1.455 4.01 -1.455 4.01 -6 3 C-4 2 -2 1 0 0 Z " fill="#A8A097" transform="translate(214,145)"/>
<path d="M0 0 C0.66 0.33 1.32 0.66 2 1 C2 1.99 2 2.98 2 4 C-0.64 4 -3.28 4 -6 4 C-5.38125 3.71125 -4.7625 3.4225 -4.125 3.125 C-1.86674235 2.06279958 -1.86674235 2.06279958 0 0 Z " fill="#EEE2D7" transform="translate(121,361)"/>
<path d="M0 0 C0.33 0.66 0.66 1.32 1 2 C1.66 2 2.32 2 3 2 C3 2.66 3 3.32 3 4 C3.99 4.33 4.98 4.66 6 5 C5.01 5.66 4.02 6.32 3 7 C1.5 5.75 1.5 5.75 0 4 C0 2.68 0 1.36 0 0 Z " fill="#B1A69E" transform="translate(384,227)"/>
<path d="M0 0 C0.66 0.66 1.32 1.32 2 2 C1.34 2 0.68 2 0 2 C-0.33 3.32 -0.66 4.64 -1 6 C-1.99 5.67 -2.98 5.34 -4 5 C-2.25 1.125 -2.25 1.125 0 0 Z " fill="#EFDDCF" transform="translate(365,210)"/>
<path d="M0 0 C0.99 0.33 1.98 0.66 3 1 C1.35 2.65 -0.3 4.3 -2 6 C-2 4.35 -2 2.7 -2 1 C-1.34 0.67 -0.68 0.34 0 0 Z " fill="#A99F97" transform="translate(296,184)"/>
<path d="M0 0 C0 3 0 3 -2 5.1875 C-2.66 5.785625 -3.32 6.38375 -4 7 C-4 5.35 -4 3.7 -4 2 C-2.68 1.34 -1.36 0.68 0 0 Z " fill="#99938C" transform="translate(384,155)"/>
</svg>
